<svg width="229" height="71" viewBox="0 0 229 71" fill="none" xmlns="http://www.w3.org/2000/svg">
<ellipse cx="26.6734" cy="44.2386" rx="18.8665" ry="18.2159" fill="#508C9B"/>
<path fill-rule="evenodd" clip-rule="evenodd" d="M13.0114 18.2158C20.1973 18.2158 26.0227 24.0412 26.0227 31.2272V18.2158H39.0341C46.22 18.2158 52.0454 24.0412 52.0454 31.2272C52.0454 38.4131 46.22 44.2385 39.0341 44.2385C46.22 44.2385 52.0454 50.064 52.0454 57.2499C52.0454 60.818 50.6091 64.0507 48.2832 66.4013L48.2345 66.4504L48.1913 66.4933C45.8402 68.8226 42.6052 70.2613 39.0341 70.2613C35.4873 70.2613 32.2719 68.8421 29.9248 66.5407C29.8944 66.5107 29.8639 66.4805 29.8336 66.4504C29.8051 66.4219 29.7768 66.3932 29.7485 66.3645C27.4441 64.017 26.0227 60.7994 26.0227 57.2499C26.0227 64.4358 20.1973 70.2613 13.0114 70.2613C5.82538 70.2613 0 64.4358 0 57.2499V44.2385H13.0114C5.82538 44.2385 0 38.4131 0 31.2272C0 24.0412 5.82538 18.2158 13.0114 18.2158ZM23.4204 31.2272C23.4204 36.976 18.7602 41.6363 13.0114 41.6363V20.8181C18.7602 20.8181 23.4204 25.4784 23.4204 31.2272ZM49.4432 57.2499C49.4432 51.5011 44.7829 46.8408 39.0341 46.8408C33.2853 46.8408 28.625 51.5011 28.625 57.2499H49.4432ZM2.60227 46.8408V57.2499C2.60227 62.9987 7.26258 67.659 13.0114 67.659C18.7602 67.659 23.4204 62.9987 23.4204 57.2499V46.8408H2.60227ZM28.625 41.6363V20.8181H39.0341C44.7829 20.8181 49.4432 25.4784 49.4432 31.2272C49.4432 36.976 44.7829 41.6363 39.0341 41.6363H28.625Z" fill="#201E43"/>
<path d="M96.6484 22.612C97.7934 22.8792 98.9575 23.3181 100.141 23.9288C101.362 24.5013 102.297 25.2837 102.946 26.276C100.923 29.0622 99.0338 31.9438 97.2782 34.9208C95.5225 37.8978 93.8432 40.9702 92.2402 44.138L95.0454 43.5655C95.3889 43.9472 95.5798 44.367 95.6179 44.825L91.0952 46.4853C89.7212 49.3096 88.5189 52.153 87.4884 55.0155C86.4579 57.8398 85.6183 60.7596 84.9694 63.7747C83.8244 63.7366 82.7176 63.5839 81.6489 63.3167C80.5803 63.0877 79.6452 62.5343 78.8437 61.6565C79.5307 59.3665 80.294 57.1338 81.1337 54.9583C81.9734 52.7446 82.8894 50.5309 83.8817 48.3173C83.1565 48.3936 82.3169 48.489 81.3627 48.6035C80.4467 48.6798 79.607 48.718 78.8437 48.718C77.8132 48.718 76.7445 48.6798 75.6377 48.6035C74.5309 48.489 73.4622 48.2982 72.4317 48.031C71.4012 47.7257 70.4279 47.3249 69.5119 46.8288C68.5959 46.3326 67.7944 45.6647 67.1074 44.825C70.1226 41.39 72.9088 37.6688 75.4659 33.6613C78.0231 29.6538 80.2749 25.5508 82.2214 21.3525C83.5573 21.7723 84.874 22.2876 86.1717 22.8983C87.5075 23.5089 88.7289 24.2723 89.8357 25.1883C88.538 26.6768 87.1449 28.2988 85.6564 30.0545C84.2061 31.772 82.7558 33.4895 81.3054 35.207C79.8933 36.9245 78.5574 38.5657 77.2979 40.1305C76.0766 41.6953 75.0461 43.0693 74.2064 44.2525C75.1988 44.6723 76.2102 44.9777 77.2407 45.1685C78.3094 45.3212 79.378 45.3975 80.4467 45.3975C81.1719 45.3975 81.9734 45.3784 82.8512 45.3403C83.7672 45.3021 84.5878 45.2448 85.3129 45.1685C87.1831 41.2755 89.0533 37.4779 90.9234 33.7758C92.7936 30.0354 94.7019 26.3142 96.6484 22.612ZM120.883 58.7368C121.837 60.3779 122.314 61.9618 122.314 63.4885C122.314 63.832 122.276 64.1373 122.2 64.4045C122.162 64.7098 122.104 65.0152 122.028 65.3205C121.379 65.2442 120.692 65.1869 119.967 65.1487C119.28 65.1106 118.555 65.0915 117.792 65.0915C116.876 65.0915 115.94 65.1106 114.986 65.1487C114.07 65.2251 113.04 65.3205 111.895 65.435C110.75 65.5495 109.471 65.7022 108.059 65.893C106.647 66.0838 105.006 66.3319 103.136 66.6372C102.258 66.3319 101.38 65.7212 100.502 64.8052C99.6242 63.9274 98.8037 62.8587 98.0403 61.5993C98.422 60.7596 98.8991 59.7291 99.4716 58.5078C100.044 57.2483 100.712 55.7407 101.475 53.985C102.239 52.1912 103.078 50.1111 103.994 47.7448C104.948 45.3403 105.96 42.5732 107.029 39.4435C107.716 37.3825 108.307 35.5696 108.803 34.0048C109.299 32.4399 109.738 30.9323 110.12 29.482C110.54 27.9935 110.941 26.4478 111.322 24.8448C111.704 23.2418 112.124 21.3907 112.582 19.2915C114.108 19.5968 115.425 20.1693 116.532 21.009C117.677 21.8105 118.765 22.9746 119.795 24.5013C119.49 24.9974 119.089 25.7989 118.593 26.9058C118.097 28.0126 117.505 29.3675 116.818 30.9705C116.169 32.5353 115.444 34.3292 114.643 36.352C113.841 38.3367 113.002 40.474 112.124 42.764C111.284 45.0158 110.464 47.1341 109.662 49.1188C108.861 51.1034 108.135 52.8973 107.487 54.5003C106.876 56.1033 106.38 57.4773 105.998 58.6223C105.616 59.7673 105.426 60.626 105.426 61.1985C106.036 61.1603 106.59 61.1222 107.086 61.084C107.582 61.0458 108.097 60.9886 108.632 60.9123C109.166 60.7978 109.738 60.6833 110.349 60.5688C110.998 60.4161 111.761 60.2253 112.639 59.9963C113.402 59.8054 114.108 59.6528 114.757 59.5383C115.406 59.3856 116.036 59.2711 116.647 59.1948C117.295 59.0803 117.944 59.0039 118.593 58.9658C119.28 58.8894 120.043 58.8131 120.883 58.7368ZM125.691 58.1643C125.691 57.8208 125.71 57.4009 125.748 56.9048C125.825 56.3704 125.939 55.6834 126.092 54.8438C126.245 53.9659 126.435 52.9163 126.664 51.695C126.932 50.4737 127.256 49.0043 127.638 47.2868C127.714 46.9051 127.886 46.2944 128.153 45.4548C128.42 44.6151 128.764 43.7373 129.183 42.8213C129.641 41.8671 130.176 40.9511 130.786 40.0733C131.435 39.1954 132.199 38.5466 133.076 38.1268C133.725 38.2794 134.584 38.6802 135.653 39.329C136.721 39.9397 137.637 40.7984 138.401 41.9053C137.523 42.8976 136.779 43.8899 136.168 44.8823C135.595 45.8746 135.061 46.9051 134.565 47.9738C134.107 49.0424 133.668 50.1493 133.248 51.2943C132.866 52.4393 132.428 53.6415 131.931 54.901C131.512 55.9697 131.13 57.0765 130.786 58.2215C130.443 59.3283 130.252 60.3016 130.214 61.1413C130.214 61.8283 130.195 62.3053 130.157 62.5725C130.157 62.8778 130.061 63.0305 129.87 63.0305C129.718 63.0305 129.412 62.9351 128.954 62.7442C128.496 62.5534 128.019 62.2672 127.523 61.8855C127.065 61.4657 126.645 60.9504 126.264 60.3398C125.882 59.7291 125.691 59.0039 125.691 58.1643ZM136.626 33.3178C136.626 33.0888 136.683 32.7453 136.798 32.2873C136.607 32.0964 136.435 31.8102 136.282 31.4285C136.168 31.0468 136.111 30.7033 136.111 30.398C136.111 30.0545 136.149 29.5965 136.225 29.024C136.34 28.4133 136.473 27.7645 136.626 27.0775C136.779 26.3905 136.969 25.6844 137.198 24.9593C137.427 24.1959 137.656 23.5089 137.885 22.8983C138.343 22.8983 138.897 23.0318 139.546 23.299C140.233 23.528 140.92 23.8524 141.607 24.2723C142.294 24.6539 142.923 25.0928 143.496 25.589C144.068 26.047 144.507 26.4859 144.813 26.9058C144.393 27.3256 143.839 27.9172 143.152 28.6805C142.465 29.4057 141.797 30.1881 141.149 31.0278C140.5 31.8293 139.908 32.5926 139.374 33.3178C138.84 34.0429 138.496 34.5582 138.343 34.8635C137.885 34.7872 137.485 34.5963 137.141 34.291C136.798 33.9475 136.626 33.6231 136.626 33.3178ZM148.438 34.2338C149.431 34.5391 150.366 35.2261 151.243 36.2948C152.121 37.3253 152.77 38.4703 153.19 39.7298C152.77 40.7603 152.121 42.0007 151.243 43.451C150.366 44.9013 149.488 46.3898 148.61 47.9165C147.732 49.405 146.931 50.8363 146.205 52.2103C145.518 53.5461 145.118 54.6529 145.003 55.5308C145.614 54.8819 146.282 54.1377 147.007 53.298C147.77 52.4202 148.495 51.5614 149.182 50.7218C149.908 49.8439 150.576 49.0615 151.186 48.3745C151.797 47.6493 152.274 47.115 152.617 46.7715C153.343 46.0082 154.201 45.1303 155.194 44.138C156.186 43.1075 157.217 42.1533 158.285 41.2755C159.392 40.3595 160.499 39.5962 161.606 38.9855C162.713 38.3367 163.724 38.0123 164.64 38.0123C165.632 38.0123 166.453 38.3558 167.102 39.0428C167.789 39.6916 168.323 40.3786 168.705 41.1038C168.705 41.1801 168.552 41.2946 168.247 41.4473C167.98 41.5618 167.579 41.9243 167.044 42.535C166.51 43.222 165.899 44.1762 165.212 45.3975C164.564 46.5807 163.915 47.8783 163.266 49.2905C162.655 50.6645 162.14 52.0767 161.72 53.527C161.3 54.9773 161.09 56.2941 161.09 57.4773C161.09 58.4314 161.205 59.0421 161.434 59.3093C161.701 59.5764 162.064 59.71 162.522 59.71C162.942 59.71 163.38 59.6146 163.838 59.4238C164.296 59.2329 164.659 59.1375 164.926 59.1375C165.079 59.2138 165.193 59.3856 165.27 59.6528C165.384 59.8818 165.441 60.0917 165.441 60.2825C165.136 60.5497 164.774 60.8168 164.354 61.084C163.934 61.3512 163.495 61.5993 163.037 61.8283C162.579 62.0572 162.121 62.2481 161.663 62.4007C161.243 62.5534 160.861 62.6297 160.518 62.6297C159.411 62.6297 158.495 62.458 157.77 62.1145C157.083 61.8092 156.53 61.3893 156.11 60.855C155.728 60.3207 155.461 59.6909 155.308 58.9658C155.156 58.2024 155.079 57.4009 155.079 56.5613C155.079 56.1033 155.117 55.588 155.194 55.0155C155.27 54.443 155.423 53.7751 155.652 53.0118C155.881 52.2103 156.205 51.2752 156.625 50.2065C157.045 49.0997 157.579 47.7829 158.228 46.2563C158.152 46.2563 157.636 46.5234 156.682 47.0578C155.728 47.5921 154.698 48.4127 153.591 49.5195C151.797 51.237 150.175 52.9354 148.724 54.6148C147.312 56.2941 145.862 58.1643 144.373 60.2253C143.534 61.4084 142.79 62.4007 142.141 63.2022C141.53 64.0419 140.996 64.5953 140.538 64.8625C139.736 64.4045 139.145 63.7557 138.763 62.916C138.381 62.1145 138.095 61.2748 137.904 60.397C137.904 59.6718 138 58.7558 138.19 57.649C138.419 56.5422 138.706 55.3208 139.049 53.985C139.431 52.611 139.889 51.1798 140.423 49.6913C140.958 48.2028 141.549 46.7143 142.198 45.2258C143.648 41.8671 144.965 39.2336 146.148 37.3253C147.37 35.4169 148.133 34.3864 148.438 34.2338ZM170.195 56.6185C170.195 55.2445 170.539 53.3362 171.226 50.8935C171.951 48.4508 172.886 45.7792 174.031 42.8785C175.176 39.9778 176.474 36.9818 177.924 33.8903C179.375 30.7988 180.825 27.9172 182.275 25.2455C183.764 22.5738 185.176 20.2648 186.512 18.3183C187.886 16.3718 189.05 15.055 190.004 14.368C190.538 14.4062 191.111 14.6352 191.721 15.055C192.37 15.4748 192.962 15.9901 193.496 16.6008C194.03 17.1733 194.469 17.7839 194.813 18.4328C195.195 19.0816 195.385 19.6732 195.385 20.2075C193.668 21.5815 191.912 23.3563 190.118 25.5318C188.363 27.6691 186.683 30.0354 185.08 32.6308C183.477 35.1879 181.989 37.9168 180.615 40.8175C179.279 43.68 178.153 46.5043 177.237 49.2905C178.459 47.1913 179.737 45.283 181.073 43.5655C182.409 41.848 183.745 40.3786 185.08 39.1573C186.416 37.9359 187.714 37.0008 188.973 36.352C190.271 35.665 191.492 35.3024 192.637 35.2643C194.317 36.4856 195.156 38.1077 195.156 40.1305C195.156 41.3518 194.908 42.5923 194.412 43.8518C193.916 45.0731 193.248 46.2181 192.408 47.2868C191.607 48.3173 190.672 49.2142 189.603 49.9775C188.573 50.7027 187.485 51.1798 186.34 51.4088C186.722 52.7446 187.199 54.0995 187.771 55.4735C188.382 56.8475 189.088 58.1833 189.889 59.481C190.729 60.7787 191.664 61.9809 192.695 63.0877C193.763 64.1946 194.966 65.1297 196.301 65.893C196.111 66.2747 195.824 66.6563 195.443 67.038C195.061 67.4197 194.603 67.7441 194.069 68.0112C193.534 68.3166 192.943 68.5456 192.294 68.6982C191.683 68.8891 191.073 68.9845 190.462 68.9845C189.431 68.9845 188.458 68.4692 187.542 67.4387C186.664 66.4082 185.863 64.9197 185.138 62.9732C184.565 61.4084 184.012 59.5383 183.477 57.3628C182.943 55.1873 182.466 52.9163 182.046 50.55C182.581 50.2065 183.248 49.7103 184.05 49.0615C184.851 48.3745 185.691 47.5921 186.569 46.7143C189.928 43.4701 191.607 40.6648 191.607 38.2985C191.607 37.9932 191.397 37.8405 190.977 37.8405C190.214 37.8787 189.317 38.2413 188.286 38.9283C187.256 39.6153 186.149 40.5694 184.966 41.7908C183.821 43.0121 182.638 44.4433 181.416 46.0845C180.233 47.7257 179.088 49.5004 177.981 51.4088C177.523 52.1721 177.104 53.0499 176.722 54.0423C176.34 55.0346 175.997 56.0651 175.691 57.1338C175.424 58.1643 175.214 59.1948 175.062 60.2253C174.909 61.2558 174.833 62.2099 174.833 63.0877C174.833 63.6221 174.89 64.061 175.004 64.4045C173.821 64.29 173.096 63.9847 172.829 63.4885C172.524 63.0305 172.256 62.6488 172.027 62.3435C171.837 62.0763 171.627 61.8473 171.398 61.6565C171.054 61.3893 170.768 60.8168 170.539 59.939C170.31 59.0612 170.195 57.9543 170.195 56.6185ZM219.352 39.2145C219.314 39.9397 219.18 40.703 218.951 41.5045C218.76 42.2678 218.512 42.9739 218.207 43.6228C217.901 44.2334 217.577 44.7487 217.233 45.1685C216.89 45.5883 216.566 45.7983 216.26 45.7983C215.84 45.7601 215.592 45.4738 215.516 44.9395C215.516 44.825 215.554 44.6533 215.63 44.4243C215.745 44.1571 215.859 43.8708 215.974 43.5655C216.088 43.2602 216.184 42.9548 216.26 42.6495C216.375 42.3442 216.432 42.077 216.432 41.848C216.432 41.3137 216.298 40.8748 216.031 40.5313C215.802 40.1496 215.478 39.9588 215.058 39.9588C213.531 39.9588 212.367 40.9129 211.566 42.8213C210.764 44.7296 210.363 47.5348 210.363 51.237C210.363 51.6187 210.383 51.8477 210.421 51.924C211.222 51.8858 211.928 51.8668 212.539 51.8668C213.188 51.8286 213.818 51.8095 214.428 51.8095C214.466 51.8858 214.485 52.0385 214.485 52.2675C214.485 52.611 214.409 52.8591 214.256 53.0118C213.379 53.2026 212.673 53.3743 212.138 53.527C211.642 53.6415 211.26 53.756 210.993 53.8705C210.726 53.985 210.554 54.1186 210.478 54.2713C210.44 54.3858 210.421 54.5575 210.421 54.7865C210.421 55.0918 210.421 55.3972 210.421 55.7025C210.459 56.0078 210.478 56.3895 210.478 56.8475C210.478 60.0535 209.6 62.6297 207.844 64.5762C206.127 66.5227 203.722 67.6487 200.631 67.954C200.097 67.9158 199.543 67.7632 198.971 67.496C198.398 67.2288 197.845 66.8853 197.31 66.4655C196.814 66.0457 196.375 65.5686 195.994 65.0342C195.612 64.5381 195.345 64.0228 195.192 63.4885C195.192 62.0382 195.498 60.6642 196.108 59.3665C196.719 58.0307 197.539 56.8666 198.57 55.8743C199.639 54.8438 200.879 54.0232 202.291 53.4125C203.742 52.7637 205.306 52.382 206.986 52.2675C206.986 51.3133 206.89 50.3783 206.699 49.4623C206.509 48.5463 206.299 47.6684 206.07 46.8288C205.879 45.9509 205.688 45.1113 205.497 44.3098C205.306 43.4701 205.211 42.6495 205.211 41.848C205.211 40.8175 205.421 39.8061 205.841 38.8138C206.261 37.7833 206.814 36.8482 207.501 36.0085C208.188 35.1307 208.989 34.3864 209.905 33.7758C210.821 33.1651 211.776 32.7453 212.768 32.5163C213.188 32.6308 213.741 32.9743 214.428 33.5468C215.153 34.0811 215.859 34.6918 216.546 35.3788C217.233 36.0658 217.844 36.7718 218.378 37.497C218.913 38.184 219.237 38.7565 219.352 39.2145ZM200.459 65.3205C201.375 64.9388 202.234 64.3854 203.035 63.6602C203.875 62.9351 204.6 62.1145 205.211 61.1985C205.822 60.2825 206.299 59.3093 206.642 58.2788C207.024 57.2483 207.215 56.2368 207.215 55.2445C206.451 55.359 205.612 55.7216 204.696 56.3323C203.78 56.9048 202.921 57.6108 202.119 58.4505C201.318 59.252 200.65 60.0917 200.116 60.9695C199.581 61.8473 199.314 62.6107 199.314 63.2595C199.314 64.0992 199.696 64.7862 200.459 65.3205Z" fill="#201E43"/>
</svg>
